Coordinates
version=1
nRows=7
nColumns=40
inDegrees=yes

Units are S.I. units (second, meters, Newtons, ...)
Angles are in degrees.

endheader
time	pelvis_tilt	pelvis_list	pelvis_rotation	pelvis_tx	pelvis_ty	pelvis_tz	hip_flexion_r	hip_adduction_r	hip_rotation_r	knee_angle_r	knee_angle_r_beta	ankle_angle_r	subtalar_angle_r	mtp_angle_r	hip_flexion_l	hip_adduction_l	hip_rotation_l	knee_angle_l	knee_angle_l_beta	ankle_angle_l	subtalar_angle_l	mtp_angle_l	lumbar_extension	lumbar_bending	lumbar_rotation	arm_flex_r	arm_add_r	arm_rot_r	elbow_flex_r	pro_sup_r	wrist_flex_r	wrist_dev_r	arm_flex_l	arm_add_l	arm_rot_l	elbow_flex_l	pro_sup_l	wrist_flex_l	wrist_dev_l
     57.37000000	     -7.55006626	     -4.71425450	      2.22659983	      0.88668958	      0.92670391	      0.42882042	     30.39274545	     -5.40263732	     -7.18503344	     67.06694927	     67.06694927	      6.01770784	    -19.28626730	     14.68269039	     18.97644614	     -3.99709581	     -2.05847509	     23.44542403	     23.44542403	     14.73235330	     -9.35649902	      2.53728239	    -10.73060141	      4.50041732	      1.47284288	      4.56193835	    -15.11456275	      2.77055883	     28.14043522	     43.23863884	      0.00000000	      0.00000000	      3.88854479	    -13.58296848	     -2.00167439	     56.45463403	     43.35698150	      0.00000000	      0.00000000
     57.38328571	     -7.36223936	     -4.91974014	      1.83429902	      0.88547773	      0.92716392	      0.42875691	     31.75980302	     -4.95119683	     -6.68024605	     67.03252582	     67.03252582	      6.03294311	    -19.26634782	     14.99762472	     18.28042257	     -4.32909588	     -2.39563722	     23.41037118	     23.41037118	     15.20996198	     -9.18578359	      2.52992581	    -10.94598044	      4.74985498	      1.02791242	      3.79227639	    -15.40138055	      1.91631601	     26.89086424	     43.52180807	      0.00000000	      0.00000000	      3.42505156	    -13.80191922	     -1.74237999	     58.12595963	     43.55123415	      0.00000000	      0.00000000
     57.39657143	     -7.21616666	     -5.12485576	      1.43766916	      0.88424933	      0.92758291	      0.42866617	     33.06875639	     -4.52160460	     -6.26367671	     66.75832008	     66.75832008	      5.89910276	    -19.24170326	     14.95599752	     17.57429023	     -4.59315638	     -2.53822633	     23.26311814	     23.26311814	     15.53199201	     -9.42203526	      2.53797563	    -11.10435514	      5.03318725	      0.63994920	      2.75567444	    -15.91675647	      1.79059382	     26.40693734	     43.56013499	      0.00000000	      0.00000000	      3.45724986	    -13.80551216	     -1.74578050	     58.39387487	     43.57346170	      0.00000000	      0.00000000
     57.40985714	     -7.03473854	     -5.28701935	      1.03215224	      0.88307196	      0.92800761	      0.42861741	     34.21996771	     -4.09917769	     -5.85093343	     66.19861489	     66.19861489	      5.74117950	    -19.22230054	     14.86898887	     16.81309143	     -4.78202684	     -2.59994569	     23.08456459	     23.08456459	     15.82944856	     -9.78191890	      2.68059919	    -11.36814590	      5.26070246	      0.78146352	      1.46771556	    -16.45087961	      1.43421753	     25.72923577	     43.65733018	      0.00000000	      0.00000000	      3.64122266	    -13.67118658	     -1.50674510	     59.54137670	     43.62830571	      0.00000000	      0.00000000
     57.42314286	     -6.91993480	     -5.50198666	      0.61028862	      0.88200886	      0.92838681	      0.42877872	     35.27107063	     -3.63114878	     -5.58679333	     65.22230188	     65.22230188	      5.58221731	    -19.17488353	     14.82246865	     16.09775803	     -5.05613353	     -2.76472642	     22.86789974	     22.86789974	     16.13041729	    -10.02510111	      2.74134545	    -11.47474480	      5.52025714	      0.49538326	      0.53606769	    -16.92420340	      1.19036436	     25.33147298	     43.71120491	      0.00000000	      0.00000000	      3.64587350	    -13.68284816	     -1.33072157	     60.10854220	     43.65025192	      0.00000000	      0.00000000
     57.43642857	     -6.82105468	     -5.68609447	      0.15063089	      0.88099360	      0.92869401	      0.42910730	     36.20930204	     -3.16528032	     -5.36081979	     63.85546508	     63.85546508	      5.40667124	    -19.10781931	     14.81097355	     15.38775244	     -5.29937999	     -2.94580722	     22.64408906	     22.64408906	     16.43587706	    -10.27778743	      2.79081892	    -11.57940423	      5.75150720	      0.27028826	     -0.34367423	    -17.36284788	      0.99610444	     24.94898088	     43.75142028	      0.00000000	      0.00000000	      3.68967319	    -13.73865636	     -1.21045797	     60.64239810	     43.66596367	      0.00000000	      0.00000000
     57.44971429	     -6.58918277	     -5.80916748	     -0.31881615	      0.88017942	      0.92921025	      0.42957201	     36.75919421	     -2.74718004	     -5.21198603	     61.93666676	     61.93666676	      5.16105400	    -19.02950990	     14.09635240	     14.46062620	     -5.46468330	     -3.13265783	     22.31394008	     22.31394008	     16.70488043	    -10.58929198	      2.98147113	    -11.89605437	      5.86276580	      0.49727850	     -1.39324044	    -17.69403571	      0.31988322	     24.57546868	     43.87092460	      0.00000000	      0.00000000	      3.79919149	    -13.74435639	     -0.54922029	     62.44873536	     43.70696953	      0.00000000	      0.00000000
